<?xml version="1.0" encoding="UTF-8"?>
<!DOCTYPE svg PUBLIC "-//W3C//DTD SVG 1.1//EN" "http://www.w3.org/Graphics/SVG/1.1/DTD/svg11.dtd">
<!-- Creator: CorelDRAW -->
<svg xmlns="http://www.w3.org/2000/svg" xml:space="preserve" width="115mm" height="115mm" version="1.1" style="shape-rendering:geometricPrecision; text-rendering:geometricPrecision; image-rendering:optimizeQuality; fill-rule:evenodd; clip-rule:evenodd"
viewBox="0 0 11500 11500"
 xmlns:xlink="http://www.w3.org/1999/xlink"
 xmlns:xodm="http://www.corel.com/coreldraw/odm/2003">
 <defs>
  <style type="text/css">
   <![CDATA[
    .fil0 {fill:white}
   ]]>
  </style>
 </defs>
 <g id="Camada_x0020_1">
  <metadata id="CorelCorpID_0Corel-Layer"/>
  <path class="fil0" d="M5790.92 5209.24l605.37 1.78 -95.32 786.83 -507.06 -6.39 -2.99 -782.22zm-1013.36 0.58l625.97 2.9 -5.49 787.72 -540.2 -16.44 -80.28 -774.18zm-394.84 2.81l74.82 787.72 -521.08 -6.79 -168.36 -787.54 614.62 6.61zm2404.8 -1.83l657.86 6.97 -191.9 780.53 -561.07 -5.18 95.11 -782.32zm-1001.65 -1187.84l756.18 -2.81 -100.15 796.79 -650.49 -4.34 -5.54 -789.64zm-2297.68 -3.48l759.44 0.04 79.43 797.73 -663.09 4.11 -175.78 -801.88zm1153.53 -1.25l758.24 17.6 -8.85 781.69 -662.68 4.51 -86.71 -803.8zm2294.42 1.11l808.09 2.77 -201.96 795.23 -702.4 2.9 96.27 -800.9zm1387.47 -772.84c253.68,-21.22 1242.15,111.23 976.5,-302.47 -56.91,-88.62 -1131.11,-229.38 -1284.55,30.91l-77.64 268.16c-32.47,137.59 -58.25,245.02 -98.5,390.07 -512.24,84.02 -1834.89,12.24 -2433.16,12.24 -2892.29,0 -2517.6,-357.5 -2076.52,1561.86 251.94,1096.31 155.9,1180.69 639.28,1180.69l3184.17 3.75 -159.16 628.92c-444.7,1.88 -3067.18,-55.57 -3257.92,41.63 -93.49,101.27 -105.96,203.57 23.41,289.11 84.92,70.45 270.26,43.11 411.33,44.76 -59.42,115.21 -196.42,224.92 -139.42,434.24 94.66,347.5 612.43,344.91 705.39,-1.42 55.04,-205.09 -55.61,-301.44 -138.97,-434.2l1985.43 5.89c-65.88,104 -201.37,225.59 -141.56,437.19 97.79,345.8 632,337.8 704.77,-25.5 42.71,-213.26 -77.55,-307.47 -146.96,-407.17l268.91 -35.52c123.61,-242.69 929.51,-3577.31 1055.17,-4123.14z"/>
 </g>
</svg>
