<?xml version="1.0" encoding="UTF-8"?>
<!DOCTYPE svg PUBLIC "-//W3C//DTD SVG 1.1//EN" "http://www.w3.org/Graphics/SVG/1.1/DTD/svg11.dtd">
<!-- Creator: CorelDRAW -->
<svg xmlns="http://www.w3.org/2000/svg" xml:space="preserve" width="25.4mm" height="25.4mm" version="1.1" style="shape-rendering:geometricPrecision; text-rendering:geometricPrecision; image-rendering:optimizeQuality; fill-rule:evenodd; clip-rule:evenodd"
viewBox="0 0 2540 2540"
 xmlns:xlink="http://www.w3.org/1999/xlink"
 xmlns:xodm="http://www.corel.com/coreldraw/odm/2003">
 <defs>
  <style type="text/css">
   <![CDATA[
    .fil0 {fill:#1CAD5D}
   ]]>
  </style>
 </defs>
 <g id="Camada_x0020_1">
  <metadata id="CorelCorpID_0Corel-Layer"/>
  <path class="fil0" d="M1481.76 2416.46c296.26,-36.49 585.91,-246.37 752.51,-480.8 176.14,-247.84 273.44,-623.85 169.6,-988.05 -49.21,-172.62 -114.51,-291.13 -208.96,-408.09 -39.22,-48.56 -101.99,-119.92 -208.08,-76.82 -105.09,42.69 -373.87,394.02 -440.76,488.56l-254.81 361.66c-21.76,-19.78 -39.05,-49.12 -57.36,-71.89 -88.04,-109.44 -109.59,-167.09 -224.09,-161.5 -185.19,9.05 -416.46,190.21 -324.67,291.28 101.35,111.63 247.7,318.29 322.61,453.87 93.21,168.68 383.43,-7.01 442.07,-78.98l198.35 -327.06c86.12,-138.88 268,-404.94 375.61,-538.2 23.76,-29.41 42.03,-51.45 58.63,-77.98 79.62,56.31 130.72,348.58 129.73,472.91 -3.72,468.35 -361.91,861.32 -809.03,917.84 -10.29,1.3 -26.29,2.57 -35.64,4.24 -27.01,4.85 -11.91,-2.46 -29.72,9.3 -133.71,-27.97 -235.15,18.73 -475.88,-99.01 -139.27,-68.12 -235.02,-152.45 -317.49,-253.8 -491.06,-603.45 -61.03,-1477.89 647.51,-1523.57 96.62,-6.23 175.07,-0.65 195.25,-93.74 9.76,-45.04 -7.36,-83.78 -30.28,-108.13 -63.92,-67.87 -290.81,-20.78 -367.43,-0.28 -974.94,260.86 -1199.21,1486.57 -410.08,2079.46 210.02,157.8 561.43,282.94 902.41,208.78z"/>
 </g>
</svg>
