<?xml version="1.0" encoding="UTF-8"?>
<!DOCTYPE svg PUBLIC "-//W3C//DTD SVG 1.1//EN" "http://www.w3.org/Graphics/SVG/1.1/DTD/svg11.dtd">
<!-- Creator: CorelDRAW -->
<svg xmlns="http://www.w3.org/2000/svg" xml:space="preserve" width="25.4mm" height="25.4mm" version="1.1" style="shape-rendering:geometricPrecision; text-rendering:geometricPrecision; image-rendering:optimizeQuality; fill-rule:evenodd; clip-rule:evenodd"
viewBox="0 0 2540 2540"
 xmlns:xlink="http://www.w3.org/1999/xlink"
 xmlns:xodm="http://www.corel.com/coreldraw/odm/2003">
 <defs>
  <style type="text/css">
   <![CDATA[
    .fil0 {fill:#D93C3C}
   ]]>
  </style>
 </defs>
 <g id="Camada_x0020_1">
  <metadata id="CorelCorpID_0Corel-Layer"/>
  <path class="fil0" d="M1389.67 968.98c-78.45,-91.95 -145.99,-179.64 -226.27,-268.22 -122.63,-135.31 -500.61,85.46 -419.91,213.51l118.56 133.17c37.95,43.3 202.92,243.13 218.62,284.35 -30.35,28.91 -60.29,75.38 -86.69,108.29l-168.31 227.59c-21.17,30.28 -74.21,90.95 -50.67,143.98 37.5,84.53 214.3,28.84 295.04,-13.69 122.73,-64.67 110.98,-123.55 194.81,-207.69 51.97,44.36 138.02,235.81 182.28,265.69 121.02,81.72 472.84,-102.28 394.13,-241.59l-180.43 -276.45c-20.63,-29.07 -80.95,-108.42 -91.46,-137.29l221.92 -250.59c40.57,-43.33 81.06,-72.89 121.6,-114.6 30.68,-31.57 95.11,-96.97 126.16,-111.99 141.84,217.74 230.57,492.21 135.43,807.59 -167.37,554.88 -775.07,816.51 -1273.5,596.52 -829.59,-366.16 -711.87,-1553.51 138.26,-1769.81 185.64,-47.23 359.51,7.16 349.72,-154.56 -9.55,-157.83 -250.82,-108.29 -378.54,-78.55 -872.56,203.16 -1171.89,1251.35 -651.35,1874.65 150.03,179.66 332.25,323.02 613.59,399.21 542.06,146.78 1111.35,-123.59 1350.76,-612.19 123.76,-252.56 159.72,-538.72 78.55,-846.66 -44.14,-167.5 -237.04,-617.51 -483.7,-456.45 -140.17,91.52 -349.48,297.89 -467.09,424.09 -17.95,19.26 -47.35,43.43 -61.51,61.69z"/>
 </g>
</svg>
